<svg width="500px" height="500px" viewBox="0 0 500 500" version="1.1" xmlns="http://www.w3.org/2000/svg" xmlns:xlink="http://www.w3.org/1999/xlink">
  <g stroke="none" stroke-width="1" fill="none" fill-rule="evenodd">
    <g id="twitter" fill="#FFFFFF" fill-rule="nonzero">
      <path d="M437.5,500 L62.5,500 C28,500 0,472 0,437.5 L0,62.5 C0,28 28,0 62.5,0 L437.5,0 C472,0 500,28 500,62.5 L500,437.5 C500,472 472,500 437.5,500 Z M192,377 C309.875,377 374.375,279.25 374.375,194.625 C374.375,191.875 374.375,189.125 374.25,186.375 C386.75,177.375 397.625,166 406.25,153.125 C394.75,158.25 382.375,161.625 369.375,163.25 C382.625,155.375 392.75,142.75 397.625,127.75 C385.25,135.125 371.5,140.375 356.875,143.25 C345.125,130.75 328.5,123 310.125,123 C274.75,123 246,151.75 246,187.125 C246,192.125 246.625,197 247.625,201.75 C194.375,199.125 147.125,173.5 115.5,134.75 C110,144.25 106.875,155.25 106.875,167 C106.875,189.25 118.25,208.875 135.375,220.375 C124.875,220 115,217.125 106.375,212.375 C106.375,212.625 106.375,212.875 106.375,213.25 C106.375,244.25 128.5,270.25 157.75,276.125 C152.375,277.625 146.75,278.375 140.875,278.375 C136.75,278.375 132.75,278 128.875,277.25 C137,302.75 160.75,321.25 188.75,321.75 C166.75,339 139.125,349.25 109.125,349.25 C104,349.25 98.875,349 93.875,348.375 C122.125,366.375 155.875,377 192,377 L192,377 Z" id="Shape"/>
    </g>
  </g>
</svg>
